<mxfile host="app.diagrams.net" agent="Mozilla/5.0 (Windows NT 10.0; Win64; x64) AppleWebKit/537.36 (KHTML, like Gecko) Chrome/132.0.0.0 Safari/537.36" version="26.0.8">
  <diagram name="Page-1" id="5f0bae14-7c28-e335-631c-24af17079c00">
    <mxGraphModel dx="794" dy="446" grid="1" gridSize="10" guides="1" tooltips="1" connect="1" arrows="1" fold="1" page="1" pageScale="1" pageWidth="1100" pageHeight="850" background="none" math="0" shadow="0">
      <root>
        <mxCell id="0" />
        <mxCell id="1" parent="0" />
        <mxCell id="rcjB58yrdYSX3u5CR0P0-77" value="" style="group" vertex="1" connectable="0" parent="1">
          <mxGeometry x="30" y="50" width="1050" height="331" as="geometry" />
        </mxCell>
        <mxCell id="rcjB58yrdYSX3u5CR0P0-68" value="" style="group" vertex="1" connectable="0" parent="rcjB58yrdYSX3u5CR0P0-77">
          <mxGeometry x="180" width="870" height="331" as="geometry" />
        </mxCell>
        <mxCell id="rcjB58yrdYSX3u5CR0P0-63" value="" style="html=1;dropTarget=0;whiteSpace=wrap;" vertex="1" parent="rcjB58yrdYSX3u5CR0P0-68">
          <mxGeometry width="870" height="331" as="geometry" />
        </mxCell>
        <mxCell id="rcjB58yrdYSX3u5CR0P0-64" value="Network players" style="shape=module;jettyWidth=8;jettyHeight=4;" vertex="1" parent="rcjB58yrdYSX3u5CR0P0-63">
          <mxGeometry x="1" width="149" height="20" relative="1" as="geometry">
            <mxPoint x="-850" y="11" as="offset" />
          </mxGeometry>
        </mxCell>
        <mxCell id="rcjB58yrdYSX3u5CR0P0-45" value="" style="group" vertex="1" connectable="0" parent="rcjB58yrdYSX3u5CR0P0-68">
          <mxGeometry x="425" y="26" width="430" height="290" as="geometry" />
        </mxCell>
        <mxCell id="rcjB58yrdYSX3u5CR0P0-43" value="" style="html=1;dropTarget=0;whiteSpace=wrap;" vertex="1" parent="rcjB58yrdYSX3u5CR0P0-45">
          <mxGeometry width="430" height="290" as="geometry" />
        </mxCell>
        <mxCell id="rcjB58yrdYSX3u5CR0P0-44" value="Local players" style="shape=module;jettyWidth=8;jettyHeight=4;" vertex="1" parent="rcjB58yrdYSX3u5CR0P0-43">
          <mxGeometry x="1" width="91" height="20" relative="1" as="geometry">
            <mxPoint x="-98" y="7" as="offset" />
          </mxGeometry>
        </mxCell>
        <mxCell id="rcjB58yrdYSX3u5CR0P0-7" value="&lt;p style=&quot;margin:0px;margin-top:4px;text-align:center;&quot;&gt;&lt;b&gt;Player2&lt;/b&gt;&lt;/p&gt;&lt;hr size=&quot;1&quot; style=&quot;border-style:solid;&quot;&gt;&lt;div style=&quot;height:2px;&quot;&gt;&lt;/div&gt;" style="verticalAlign=top;align=left;overflow=fill;html=1;whiteSpace=wrap;container=0;" vertex="1" parent="rcjB58yrdYSX3u5CR0P0-45">
          <mxGeometry x="160" y="216" width="70" height="60" as="geometry" />
        </mxCell>
        <mxCell id="rcjB58yrdYSX3u5CR0P0-8" value="Message&lt;div&gt;Queue&lt;div&gt;Provider&lt;div&gt;&lt;br&gt;&lt;/div&gt;&lt;/div&gt;&lt;/div&gt;" style="swimlane;childLayout=stackLayout;resizeParent=1;resizeParentMax=0;horizontal=1;startSize=20;horizontalStack=0;html=1;container=0;" vertex="1" parent="rcjB58yrdYSX3u5CR0P0-45">
          <mxGeometry x="20" y="30" width="110" height="200" as="geometry" />
        </mxCell>
        <mxCell id="rcjB58yrdYSX3u5CR0P0-12" value="&lt;u style=&quot;font-weight: 700; text-wrap-mode: wrap;&quot;&gt;Player1&lt;/u&gt;" style="swimlane;fontStyle=0;childLayout=stackLayout;horizontal=1;startSize=26;fillColor=none;horizontalStack=0;resizeParent=1;resizeParentMax=0;resizeLast=0;collapsible=1;marginBottom=0;html=1;container=0;" vertex="1" parent="rcjB58yrdYSX3u5CR0P0-45">
          <mxGeometry x="190" y="36" width="220" height="104" as="geometry" />
        </mxCell>
        <mxCell id="rcjB58yrdYSX3u5CR0P0-20" value="" style="endArrow=classic;startArrow=classic;html=1;rounded=0;entryX=0;entryY=0.5;entryDx=0;entryDy=0;exitX=1;exitY=0.5;exitDx=0;exitDy=0;" edge="1" parent="rcjB58yrdYSX3u5CR0P0-45" source="rcjB58yrdYSX3u5CR0P0-9" target="rcjB58yrdYSX3u5CR0P0-14">
          <mxGeometry width="50" height="50" relative="1" as="geometry">
            <mxPoint x="40" y="186" as="sourcePoint" />
            <mxPoint x="150" y="326" as="targetPoint" />
            <Array as="points">
              <mxPoint x="150" y="101" />
            </Array>
          </mxGeometry>
        </mxCell>
        <mxCell id="rcjB58yrdYSX3u5CR0P0-23" value="" style="shape=flexArrow;endArrow=classic;startArrow=classic;html=1;rounded=0;entryX=-0.019;entryY=0.867;entryDx=0;entryDy=0;width=4;startSize=2.84;exitX=0.75;exitY=1;exitDx=0;exitDy=0;entryPerimeter=0;" edge="1" parent="rcjB58yrdYSX3u5CR0P0-45" source="rcjB58yrdYSX3u5CR0P0-10" target="rcjB58yrdYSX3u5CR0P0-7">
          <mxGeometry width="100" height="100" relative="1" as="geometry">
            <mxPoint x="100" y="356" as="sourcePoint" />
            <mxPoint x="190" y="36" as="targetPoint" />
            <Array as="points">
              <mxPoint x="100" y="266" />
            </Array>
          </mxGeometry>
        </mxCell>
        <mxCell id="rcjB58yrdYSX3u5CR0P0-30" value="" style="endArrow=classic;startArrow=classic;html=1;rounded=0;entryX=0;entryY=0.5;entryDx=0;entryDy=0;exitX=1;exitY=0.25;exitDx=0;exitDy=0;" edge="1" parent="rcjB58yrdYSX3u5CR0P0-45" source="rcjB58yrdYSX3u5CR0P0-9" target="rcjB58yrdYSX3u5CR0P0-13">
          <mxGeometry width="50" height="50" relative="1" as="geometry">
            <mxPoint x="-20" y="246" as="sourcePoint" />
            <mxPoint x="30" y="196" as="targetPoint" />
          </mxGeometry>
        </mxCell>
        <mxCell id="rcjB58yrdYSX3u5CR0P0-31" value="&lt;p style=&quot;text-align: center; margin: 4px 0px 0px;&quot;&gt;&lt;span style=&quot;background-color: transparent; text-align: left;&quot;&gt;&lt;b&gt;ReplyMessageProvider&lt;/b&gt;&lt;/span&gt;&lt;/p&gt;&lt;hr size=&quot;1&quot; style=&quot;border-style:solid;&quot;&gt;&lt;div style=&quot;height:2px;&quot;&gt;&lt;/div&gt;" style="verticalAlign=top;align=left;overflow=fill;html=1;whiteSpace=wrap;container=0;" vertex="1" parent="rcjB58yrdYSX3u5CR0P0-45">
          <mxGeometry x="250" y="170" width="160" height="60" as="geometry" />
        </mxCell>
        <mxCell id="rcjB58yrdYSX3u5CR0P0-33" style="edgeStyle=orthogonalEdgeStyle;rounded=0;orthogonalLoop=1;jettySize=auto;html=1;entryX=0.317;entryY=0.044;entryDx=0;entryDy=0;entryPerimeter=0;" edge="1" parent="rcjB58yrdYSX3u5CR0P0-45" source="rcjB58yrdYSX3u5CR0P0-12" target="rcjB58yrdYSX3u5CR0P0-31">
          <mxGeometry relative="1" as="geometry" />
        </mxCell>
        <mxCell id="rcjB58yrdYSX3u5CR0P0-9" value="message" style="swimlane;startSize=20;horizontal=0;html=1;container=0;" vertex="1" parent="rcjB58yrdYSX3u5CR0P0-45">
          <mxGeometry x="20" y="50" width="110" height="100" as="geometry" />
        </mxCell>
        <mxCell id="rcjB58yrdYSX3u5CR0P0-36" style="edgeStyle=orthogonalEdgeStyle;rounded=0;orthogonalLoop=1;jettySize=auto;html=1;entryX=0;entryY=0.5;entryDx=0;entryDy=0;exitX=1;exitY=0.25;exitDx=0;exitDy=0;" edge="1" parent="rcjB58yrdYSX3u5CR0P0-45" source="rcjB58yrdYSX3u5CR0P0-10" target="rcjB58yrdYSX3u5CR0P0-15">
          <mxGeometry relative="1" as="geometry" />
        </mxCell>
        <mxCell id="rcjB58yrdYSX3u5CR0P0-10" value="request" style="swimlane;startSize=20;horizontal=0;html=1;container=0;" vertex="1" parent="rcjB58yrdYSX3u5CR0P0-45">
          <mxGeometry x="20" y="150" width="110" height="80" as="geometry" />
        </mxCell>
        <mxCell id="rcjB58yrdYSX3u5CR0P0-13" value="receiveMessageAndReply::listen&amp;nbsp;" style="text;strokeColor=none;fillColor=none;align=left;verticalAlign=top;spacingLeft=4;spacingRight=4;overflow=hidden;rotatable=0;points=[[0,0.5],[1,0.5]];portConstraint=eastwest;whiteSpace=wrap;html=1;container=0;" vertex="1" parent="rcjB58yrdYSX3u5CR0P0-45">
          <mxGeometry x="190" y="62" width="220" height="26" as="geometry" />
        </mxCell>
        <mxCell id="rcjB58yrdYSX3u5CR0P0-14" value="&lt;p style=&quot;margin: 0px 0px 0px 8px;&quot;&gt;&lt;span style=&quot;background-color: transparent; color: light-dark(rgb(0, 0, 0), rgb(255, 255, 255));&quot;&gt;sendMessageAndWaitForResponse&lt;/span&gt;&lt;/p&gt;" style="text;strokeColor=none;fillColor=none;align=left;verticalAlign=top;spacingLeft=4;spacingRight=4;overflow=hidden;rotatable=0;points=[[0,0.5],[1,0.5]];portConstraint=eastwest;whiteSpace=wrap;html=1;container=0;" vertex="1" parent="rcjB58yrdYSX3u5CR0P0-45">
          <mxGeometry x="190" y="88" width="220" height="26" as="geometry" />
        </mxCell>
        <mxCell id="rcjB58yrdYSX3u5CR0P0-15" value="&lt;p style=&quot;margin: 0px 0px 0px 8px;&quot;&gt;&lt;span style=&quot;background-color: transparent; color: light-dark(rgb(0, 0, 0), rgb(255, 255, 255));&quot;&gt;receiveRequestAndRepeatSending::listen&lt;/span&gt;&lt;/p&gt;" style="text;strokeColor=none;fillColor=none;align=left;verticalAlign=top;spacingLeft=4;spacingRight=4;overflow=hidden;rotatable=0;points=[[0,0.5],[1,0.5]];portConstraint=eastwest;whiteSpace=wrap;html=1;container=0;" vertex="1" parent="rcjB58yrdYSX3u5CR0P0-45">
          <mxGeometry x="190" y="114" width="220" height="26" as="geometry" />
        </mxCell>
        <mxCell id="rcjB58yrdYSX3u5CR0P0-46" value="NetworkMessageHandler" style="swimlane;fontStyle=0;childLayout=stackLayout;horizontal=1;startSize=26;fillColor=none;horizontalStack=0;resizeParent=1;resizeParentMax=0;resizeLast=0;collapsible=1;marginBottom=0;html=1;" vertex="1" parent="rcjB58yrdYSX3u5CR0P0-68">
          <mxGeometry x="60" y="121" width="290" height="104" as="geometry" />
        </mxCell>
        <mxCell id="rcjB58yrdYSX3u5CR0P0-47" value="NetworkServer" style="text;strokeColor=none;fillColor=none;align=left;verticalAlign=top;spacingLeft=4;spacingRight=4;overflow=hidden;rotatable=0;points=[[0,0.5],[1,0.5]];portConstraint=eastwest;whiteSpace=wrap;html=1;" vertex="1" parent="rcjB58yrdYSX3u5CR0P0-46">
          <mxGeometry y="26" width="290" height="26" as="geometry" />
        </mxCell>
        <mxCell id="rcjB58yrdYSX3u5CR0P0-48" value="handleReceivedMessageAndReply" style="text;strokeColor=none;fillColor=none;align=left;verticalAlign=top;spacingLeft=4;spacingRight=4;overflow=hidden;rotatable=0;points=[[0,0.5],[1,0.5]];portConstraint=eastwest;whiteSpace=wrap;html=1;" vertex="1" parent="rcjB58yrdYSX3u5CR0P0-46">
          <mxGeometry y="52" width="290" height="26" as="geometry" />
        </mxCell>
        <mxCell id="rcjB58yrdYSX3u5CR0P0-49" value="handleSendMessageAndWaitForResponse::listen" style="text;strokeColor=none;fillColor=none;align=left;verticalAlign=top;spacingLeft=4;spacingRight=4;overflow=hidden;rotatable=0;points=[[0,0.5],[1,0.5]];portConstraint=eastwest;whiteSpace=wrap;html=1;" vertex="1" parent="rcjB58yrdYSX3u5CR0P0-46">
          <mxGeometry y="78" width="290" height="26" as="geometry" />
        </mxCell>
        <mxCell id="rcjB58yrdYSX3u5CR0P0-52" style="endArrow=classic;startArrow=classic;edgeStyle=orthogonalEdgeStyle;rounded=0;orthogonalLoop=1;jettySize=auto;html=1;entryX=0.024;entryY=0.673;entryDx=0;entryDy=0;entryPerimeter=0;" edge="1" parent="rcjB58yrdYSX3u5CR0P0-68" source="rcjB58yrdYSX3u5CR0P0-48" target="rcjB58yrdYSX3u5CR0P0-9">
          <mxGeometry relative="1" as="geometry" />
        </mxCell>
        <mxCell id="rcjB58yrdYSX3u5CR0P0-53" style="endArrow=classic;startArrow=classic;edgeStyle=orthogonalEdgeStyle;rounded=0;orthogonalLoop=1;jettySize=auto;html=1;entryX=0;entryY=0.5;entryDx=0;entryDy=0;" edge="1" parent="rcjB58yrdYSX3u5CR0P0-68" source="rcjB58yrdYSX3u5CR0P0-48" target="rcjB58yrdYSX3u5CR0P0-10">
          <mxGeometry relative="1" as="geometry" />
        </mxCell>
        <mxCell id="rcjB58yrdYSX3u5CR0P0-55" style="edgeStyle=orthogonalEdgeStyle;rounded=0;orthogonalLoop=1;jettySize=auto;html=1;entryX=0;entryY=0.5;entryDx=0;entryDy=0;exitX=0;exitY=0.25;exitDx=0;exitDy=0;" edge="1" parent="rcjB58yrdYSX3u5CR0P0-68" source="rcjB58yrdYSX3u5CR0P0-54" target="rcjB58yrdYSX3u5CR0P0-48">
          <mxGeometry relative="1" as="geometry" />
        </mxCell>
        <mxCell id="rcjB58yrdYSX3u5CR0P0-54" value="&lt;p style=&quot;margin:0px;margin-top:4px;text-align:center;&quot;&gt;&lt;b&gt;NetworkServer&lt;/b&gt;&lt;/p&gt;&lt;hr size=&quot;1&quot; style=&quot;border-style:solid;&quot;&gt;&lt;div style=&quot;height:2px;&quot;&gt;&lt;/div&gt;" style="verticalAlign=top;align=left;overflow=fill;html=1;whiteSpace=wrap;" vertex="1" parent="rcjB58yrdYSX3u5CR0P0-68">
          <mxGeometry x="60" y="256" width="140" height="60" as="geometry" />
        </mxCell>
        <mxCell id="rcjB58yrdYSX3u5CR0P0-56" style="edgeStyle=orthogonalEdgeStyle;rounded=0;orthogonalLoop=1;jettySize=auto;html=1;entryX=0;entryY=0.75;entryDx=0;entryDy=0;dashed=1;" edge="1" parent="rcjB58yrdYSX3u5CR0P0-68" source="rcjB58yrdYSX3u5CR0P0-47" target="rcjB58yrdYSX3u5CR0P0-54">
          <mxGeometry relative="1" as="geometry">
            <Array as="points">
              <mxPoint x="20" y="160" />
              <mxPoint x="20" y="301" />
            </Array>
          </mxGeometry>
        </mxCell>
        <mxCell id="rcjB58yrdYSX3u5CR0P0-59" value="&lt;p style=&quot;margin:0px;margin-top:4px;text-align:center;&quot;&gt;&lt;b&gt;NetworkClient&lt;/b&gt;&lt;/p&gt;&lt;hr size=&quot;1&quot; style=&quot;border-style:solid;&quot;&gt;&lt;div style=&quot;height:2px;&quot;&gt;&lt;/div&gt;" style="verticalAlign=top;align=left;overflow=fill;html=1;whiteSpace=wrap;" vertex="1" parent="rcjB58yrdYSX3u5CR0P0-68">
          <mxGeometry x="210" y="256" width="140" height="60" as="geometry" />
        </mxCell>
        <mxCell id="rcjB58yrdYSX3u5CR0P0-61" style="edgeStyle=orthogonalEdgeStyle;rounded=0;orthogonalLoop=1;jettySize=auto;html=1;entryX=1;entryY=0.5;entryDx=0;entryDy=0;exitX=0;exitY=0.5;exitDx=0;exitDy=0;" edge="1" parent="rcjB58yrdYSX3u5CR0P0-68" source="rcjB58yrdYSX3u5CR0P0-9" target="rcjB58yrdYSX3u5CR0P0-49">
          <mxGeometry relative="1" as="geometry">
            <mxPoint x="420" y="121" as="sourcePoint" />
            <Array as="points">
              <mxPoint x="445" y="121" />
              <mxPoint x="380" y="121" />
              <mxPoint x="380" y="212" />
            </Array>
          </mxGeometry>
        </mxCell>
        <mxCell id="rcjB58yrdYSX3u5CR0P0-66" style="edgeStyle=orthogonalEdgeStyle;rounded=0;orthogonalLoop=1;jettySize=auto;html=1;" edge="1" parent="rcjB58yrdYSX3u5CR0P0-68" source="rcjB58yrdYSX3u5CR0P0-49" target="rcjB58yrdYSX3u5CR0P0-59">
          <mxGeometry relative="1" as="geometry">
            <Array as="points">
              <mxPoint x="270" y="241" />
              <mxPoint x="270" y="241" />
            </Array>
          </mxGeometry>
        </mxCell>
        <mxCell id="rcjB58yrdYSX3u5CR0P0-69" value="&lt;span style=&quot;text-wrap-mode: nowrap;&quot;&gt;Network players&lt;/span&gt;" style="shape=module;align=left;spacingLeft=20;align=center;verticalAlign=top;whiteSpace=wrap;html=1;" vertex="1" parent="rcjB58yrdYSX3u5CR0P0-77">
          <mxGeometry width="130" height="330" as="geometry" />
        </mxCell>
        <mxCell id="rcjB58yrdYSX3u5CR0P0-70" value="&lt;p style=&quot;margin:0px;margin-top:4px;text-align:center;&quot;&gt;&lt;b&gt;PlayerN&lt;/b&gt;&lt;/p&gt;&lt;hr size=&quot;1&quot; style=&quot;border-style:solid;&quot;&gt;&lt;div style=&quot;height:2px;&quot;&gt;&lt;/div&gt;" style="verticalAlign=top;align=left;overflow=fill;html=1;whiteSpace=wrap;container=0;" vertex="1" parent="rcjB58yrdYSX3u5CR0P0-77">
          <mxGeometry x="20" y="110" width="70" height="60" as="geometry" />
        </mxCell>
        <mxCell id="rcjB58yrdYSX3u5CR0P0-74" value="" style="shape=flexArrow;endArrow=classic;startArrow=classic;html=1;rounded=0;entryX=-0.002;entryY=0.626;entryDx=0;entryDy=0;width=4;startSize=2.84;entryPerimeter=0;exitX=0.995;exitY=0.638;exitDx=0;exitDy=0;exitPerimeter=0;" edge="1" parent="rcjB58yrdYSX3u5CR0P0-77" source="rcjB58yrdYSX3u5CR0P0-69" target="rcjB58yrdYSX3u5CR0P0-63">
          <mxGeometry width="100" height="100" relative="1" as="geometry">
            <mxPoint x="124" y="220" as="sourcePoint" />
            <mxPoint x="180" y="258" as="targetPoint" />
            <Array as="points" />
          </mxGeometry>
        </mxCell>
      </root>
    </mxGraphModel>
  </diagram>
</mxfile>
